<?xml version="1.0" encoding="UTF-8"?>
<svg id="Livello_1" xmlns="http://www.w3.org/2000/svg" version="1.1" viewBox="0 0 241.2 99.2" width="241.2" height="99.2">
  <!-- Generator: Adobe Illustrator 29.8.4, SVG Export Plug-In . SVG Version: 2.1.1 Build 6)  -->
  <rect x="95.6" y="3.2" width=".5" height="92.1"/>
  <g>
    <g>
      <path d="M107.1,16.4c.6,0,1.4,0,2.1,0s1.3,0,1.9,0,.5,0,.5.2c0,.2-.3.2-.5.2-1.1.2-1.1.9-1.2,2,0,1.9,0,3,0,4.4v1.5c0,2.1.4,3.2,1.2,4.1.9.9,2.3,1.3,3.4,1.3,3,0,4.5-1.7,4.5-6.4v-2c0-4.1-.1-4.5-.8-4.8-.2,0-.4,0-.6-.1-.2,0-.4-.1-.4-.2s.2-.2.4-.2c.5,0,.9,0,1.7,0s1.1,0,1.7,0,.6,0,.6.1-.1.2-.5.3c-.9.2-1.1.6-1.2,1.6,0,1.4-.1,3-.1,4.5,0,3.2-.4,5.2-1.8,6.5-1.2,1.2-2.7,1.6-4,1.6s-2.8-.3-3.8-1c-1.4-1.1-2-2.5-2-5.8,0-2,0-4.1,0-5.9,0-1-.2-1.2-1.1-1.4-.1,0-.6-.1-.6-.3,0-.2.4-.2.6-.2Z"/>
      <path d="M123.4,16.4c.6,0,1.5.1,2.6.1s.3.2.6.5c1.4,1.9,7.1,8.4,9.2,10.7,0,0,.1,0,.1,0,0-.8,0-7.1,0-9,0-1.3-.4-1.5-1.5-1.7-.3,0-.5-.1-.5-.3s.3-.2.5-.2c.4,0,1.3,0,1.8,0s1.1,0,1.7,0,.5,0,.5.2-.2.2-.5.3c-.9.2-1.1.8-1.2,1.3,0,1-.1,5.7-.1,7.8s0,3,0,4.2c0,.4,0,.7-.2.7s-.4-.3-.8-.8c-.4-.5-6.7-8.1-9.8-11.7,0,0-.2,0-.2,0v9.2c0,1.9.2,2.3,1.5,2.5.3,0,.6.2.6.3s0,.2-.6.2-1.2-.1-1.9-.1-1.4.1-1.6.1-.6,0-.6-.2.3-.2.6-.2c1-.2,1.2-.6,1.4-2.1,0-1,.2-7.9.2-9.3s-.1-1.4-.4-1.7c-.3-.3-.7-.3-1.1-.4-.4,0-.5-.1-.5-.2,0,0,.2-.2.5-.2Z"/>
      <path d="M140.9,16.4c.7,0,1.2,0,2,0s1.7,0,2.1,0,.4,0,.4.2-.2.2-.5.3c-.8.1-1,.4-1.1,1.2,0,1.1,0,3.7,0,5.2,0,3.3,0,5.1,0,5.8,0,.8.2,1,1.3,1.2.3,0,.4.1.4.3s-.3.2-.6.2-1.5,0-2.2,0-1.4.1-2,.1-.5,0-.5-.2.2-.2.5-.3c.9-.1,1.2-.5,1.2-1.8,0-1.3,0-3.3,0-5.2s0-5.3,0-5.5c0-.6-.6-.8-1.2-.9-.2,0-.4-.1-.4-.2,0-.1.3-.2.5-.2Z"/>
      <path d="M147.2,16.4c.4,0,1.5,0,2,0,.8,0,1.3,0,1.8,0s.6,0,.6.2-.2.2-.5.2c-.7.1-.8.4-.7.7,0,.2.2.6.4,1.1.5,1.2,3.2,8.1,3.8,9.5,0,.1.1.1.2,0,.4-.8,3.4-7.7,3.8-8.8.3-.9.6-1.4.6-1.9s-.4-.5-1.1-.7c-.2,0-.4-.1-.4-.2s.2-.2.6-.2,1.1,0,1.9,0,1.1,0,1.5,0,.4,0,.4.1,0,.2-.4.3c-.8.1-1.3.6-2.1,2.1-.4.9-1.9,4.3-4.1,9.5-.4,1.1-.8,1.9-.9,2.2,0,.2-.2.4-.3.4s-.2-.1-.3-.4c-.8-2.3-4.4-11.3-5.1-12.7-.3-.7-.8-1-1.4-1.1-.3,0-.6-.1-.6-.3s.3-.1.5-.1Z"/>
      <path d="M165.5,16.5c1.3,0,4.1,0,5.1,0s1.6,0,1.8,0,.2.2.2.4c0,.2.1,1.3.2,1.7,0,.2,0,.4-.1.4s-.2-.1-.3-.4c-.5-1-.9-1.4-1.2-1.4-.4,0-.5,0-4.5,0s-.2,0-.2.3c0,1.2,0,4.7,0,5.4,0,.1,0,.2.2.2h2.6c1.2,0,1.7-.1,2-.2.1,0,.3-.3.6-.9,0-.2.1-.4.3-.4s.1.1.1.4-.1,1-.1,1.4c0,.4,0,1.2,0,1.4,0,.2,0,.4-.1.4s-.2-.1-.3-.5-.3-.9-.7-.9c-.4,0-1.1-.1-4.3-.1s-.2,0-.2.3c0,.7,0,4.4,0,4.9,0,.9,0,1.2.6,1.3.3,0,1.2,0,2.4,0,2.2,0,2.4-.1,2.8-.4.2-.2.6-.6,1-1.4.1-.2.2-.4.3-.4s.1.2,0,.6c0,.2-.5,1.5-.5,1.8,0,.1-.2.3-.4.3-2.6,0-5,0-7.2,0s-1.8,0-2.1,0-.6,0-.6-.2.2-.2.5-.2c.8-.1,1.2-.4,1.2-1.3,0-1.4,0-4.1,0-6.4v-4c0-1.2-.4-1.4-1.2-1.6-.3,0-.4-.1-.4-.2s.2-.2.4-.2c.6,0,1.4,0,2,0Z"/>
      <path d="M179.3,27.1c0,1.6,0,2.1.1,2.3,0,.5.4.7,1.1.9.2,0,.5.1.5.2s-.3.2-.5.2c-.5,0-1.4,0-2.3,0s-1.3,0-1.8,0-.5,0-.5-.2.2-.2.5-.3c.9-.1,1.1-.4,1.1-1.2,0-1.3,0-2.9,0-6.1s0-4.3,0-4.9c0-.7-.2-1-1.2-1.1-.2,0-.5-.1-.5-.2s.3-.2.5-.2c.3,0,.9,0,1.7,0s2.1-.1,3.1-.1c1.6,0,2.5.3,3.3.9,1,.6,1.5,1.6,1.5,2.6,0,1.8-1.2,2.9-2.8,3.4-.2,0-.2.1,0,.4.5,1,1.7,2.7,2.7,3.9.7,1,1.2,1.4,1.7,1.9.6.6,1.4.9,1.9.9s.2.2,0,.3c-.2.1-.6.2-1.1.2-1.6,0-2.3-.7-3.3-1.8-1.2-1.3-2.9-4-3.4-4.7-.2-.3-.7-.4-1-.5-.2,0-.7,0-1.1,0s-.2.2-.2.4v2.8h0ZM179.6,17.1c0,0-.1.2-.2.6,0,.4,0,4.9,0,5.2s0,.4.2.4c.4,0,.9,0,1.3,0,.9,0,1.6-.3,2.1-.6.7-.4,1.3-1.2,1.3-2.5s-.3-1.7-.8-2.3c-.6-.7-1.6-1.1-2.8-1.1-.2,0-.9,0-1.2.2Z"/>
      <path d="M191.4,27.9c.2.8.6,1.4,1.1,1.9.7.6,1.7.8,2.3.8,1.9,0,3-1.2,3-2.8s-.9-2.4-2.9-3.7c-1.7-1-3.3-2.3-3.3-4.3s.5-2.2,1.5-2.9c.9-.6,2-.9,3.1-.9s2.2.4,2.5.5c.2,0,.3.2.3.3,0,.6.1,1.4.2,1.7,0,.3,0,.6,0,.6s-.2-.1-.3-.4c-.2-.7-.5-1.1-1-1.5-.5-.4-1.3-.7-2-.7-1.1,0-2.6.6-2.6,2.7s.8,2,1.5,2.6c.9.6,1.7,1.1,2.5,1.6.9.6,2.4,1.7,2.4,3.5s-2.4,4.1-4.8,4.1-2.4-.3-3.2-.7c-.3,0-.4-.5-.5-.9,0-.4-.1-.9-.2-1.6,0-.3,0-.5.1-.5s.3.2.4.6Z"/>
      <path d="M202.5,16.4c.7,0,1.2,0,2,0s1.7,0,2.1,0,.5,0,.5.2-.2.2-.5.3c-.8.1-1,.4-1.1,1.2,0,1.1,0,3.7,0,5.2,0,3.3,0,5.1,0,5.8,0,.8.2,1,1.3,1.2.3,0,.4.1.4.3s-.3.2-.5.2-1.5,0-2.2,0-1.4.1-2,.1-.5,0-.5-.2.2-.2.5-.3c.9-.1,1.2-.5,1.2-1.8,0-1.3,0-3.3,0-5.2s0-5.3,0-5.5c0-.6-.6-.8-1.2-.9-.2,0-.4-.1-.4-.2,0-.1.3-.2.5-.2Z"/>
      <path d="M209.4,16.1c0,0,.1,0,.3.1s.4.1.8.2c.3,0,2.8,0,5.3,0h4.1c1.1,0,1.5,0,1.9-.2.1,0,.3-.2.4-.1s0,.1,0,.3c0,.2-.2,1.2-.1,2.2,0,.3,0,.6-.2.6s-.2-.2-.2-.4c0-.3-.3-1.1-.5-1.4-.2-.2-.2-.4-1-.4h-3.5c-.1,0-.2.3-.2.4v8c0,1.3,0,2.9,0,3.6,0,.7.4.9,1.2,1.1.3,0,.5.2.5.3s-.4.2-.6.2c-.7,0-1.2-.1-2.1-.1s-1.8.1-2.1.1-.6,0-.6-.2.2-.2.5-.3c1.1-.1,1.3-.4,1.3-1.6,0-2.3.1-10.9.1-11.1s0-.4-.1-.4h-1.9c-1,0-1.7,0-2,0-.5,0-.8.4-1.1,1.6,0,.3-.1.4-.2.4s-.2-.2-.2-.4c0-.5.2-1.5.2-2.3,0-.2,0-.3,0-.3Z"/>
      <path d="M229.4,16.2c0,0,.3,1.1.6,1.9,1.5,3.8,2.5,6.3,4.3,10.6.5,1.1.9,1.4,1.8,1.6.3,0,.5.2.5.3s-.2.2-.5.2c-.7,0-1.1-.1-2.4-.1-.9,0-1.5.1-1.9.1s-.5,0-.5-.2.3-.2.5-.3c.8-.1,1.1-.4.9-1-.2-.6-.9-2.1-1.7-4.1,0-.1-.3-.3-.4-.3-.5,0-4.1,0-4.5,0,0,0-.2,0-.3.3-.4.8-1,2.3-1.3,3.2-.3.8-.3,1.3,0,1.6.1.3.5.3,1,.4.2,0,.4.1.4.2s-.2.2-.5.2c-.5,0-1.3-.1-2.1-.1s-1,0-1.6,0-.4,0-.4-.2.3-.2.5-.3c1.2-.2,1.5-.8,2.1-2.2.7-1.3,2.8-6.3,4.2-9.7.1-.3.1-.4.1-.7s0-.2,0-.3c.2-.1.6-.7.8-1.1,0-.2.1-.3.2-.3.1,0,.1.1.2.2ZM227.4,11.9c.3.2,1.5,2.5,1.9,3.1,0,.1,0,.3,0,.3s-.2,0-.3-.2c-.9-.9-2-2-2.7-2.8-.2-.2-.2-.3-.2-.4s.1-.1.4-.1c.3,0,.9,0,1,.2ZM230.5,23.9c-1-2.7-1.7-4.3-2-5.1,0-.2-.1-.2-.2,0-.7,1.6-1.7,4.1-2,5.1,0,.1,0,.1,0,.1.4,0,1.1,0,2,0s1.8,0,2.1,0c.1,0,.1-.1.1-.2Z"/>
    </g>
    <g>
      <path d="M107.1,53.1c-.3,0-.5,0-.5-.2s.2-.2.5-.3c.9-.1,1-.3,1.1-1,0-.5,0-1.3,0-5.1s0-4.9,0-5.3c0-.8-.2-1.1-1.1-1.2-.3,0-.5-.1-.5-.3s.2-.2.4-.2,1.1,0,1.7,0c1.1,0,2.2-.2,3.3-.2,1.9,0,3.5.2,5.1,1.1,1.9,1.1,3.4,3,3.4,5.8,0,4.2-3.1,6.2-6,6.8-.8.2-1.7.2-2.1.2s-1,0-1.6,0c-.7,0-1.4-.1-2.1-.1-.6,0-1.4,0-1.6,0ZM110.3,40c-.1,0-.3.3-.3.6,0,.9-.1,1.5-.1,5.3s0,3.4.1,4.5c0,1.4.2,1.6.7,1.9.5.3,1.6.6,2.2.6,1.1,0,1.9-.2,2.6-.5,1.4-.7,3.2-2.3,3.2-5.8s-.4-3.7-2-5c-1.3-1.1-2.9-1.7-4.9-1.7-.6,0-1.3,0-1.6.2Z"/>
      <path d="M125.4,39.6c1.2,0,3.9,0,4.8,0s1.6,0,1.8,0,.2.2.2.4c0,.2.1,1.2.2,1.6,0,.2,0,.4-.1.4s-.2-.1-.3-.4c-.4-1-.8-1.3-1.1-1.4-.4,0-.5,0-4.3,0s-.2,0-.2.3c0,1.2,0,4.5,0,5.1,0,.1,0,.2.2.2h2.5c1.1,0,1.6-.1,1.9-.2.1,0,.3-.3.6-.8,0-.2.1-.4.3-.4s.1.1.1.4-.1,1-.1,1.3c0,.4,0,1.1,0,1.3,0,.2,0,.4-.1.4-.1,0-.2-.1-.3-.5-.1-.4-.3-.8-.6-.9-.4,0-1-.1-4.1-.1s-.2,0-.2.3c0,.7,0,4.2,0,4.6,0,.8,0,1.2.6,1.2.3,0,1.1,0,2.3,0,2.1,0,2.3-.1,2.6-.4.2-.2.6-.6,1-1.4.1-.2.2-.4.3-.4s.1.2,0,.6c0,.2-.4,1.4-.5,1.7,0,.1-.2.3-.4.3-2.4,0-4.8,0-6.8,0s-1.7,0-2,0-.6,0-.6-.2.2-.2.5-.2c.8-.1,1.1-.4,1.2-1.2,0-1.4,0-3.9,0-6.1v-3.8c0-1.1-.4-1.4-1.1-1.6-.3,0-.4-.1-.4-.2s.2-.2.4-.2c.5,0,1.3,0,1.9,0Z"/>
      <path d="M138,51.6c-1.5-1.3-2.4-3.1-2.4-5.1s.9-4.2,3-5.8c1-.8,2.6-1.5,5.2-1.5s1.9.1,2.8.4c.5.2,1.3.4,1.5.6.2,0,.3.2.3.5s.2,1.2.2,1.5c0,.4,0,.7,0,.7-.2,0-.3-.2-.4-.5-.3-.6-.7-1.2-1.2-1.6-.8-.7-2-1.1-3.4-1.1s-3.2.8-4.1,1.7c-1.1,1.1-2,2.9-2,4.9s1.4,4.6,2.6,5.5c1,.8,2.4,1.2,3.5,1.2s2.4-.2,3-.8c.2-.2.3-.8.3-1.1s0-1.8,0-2.4c0-.8-.4-.9-1.4-1.1-.3,0-.4-.1-.4-.2s.2-.2.7-.2,1.2,0,1.8,0,1.2,0,1.7,0,.6,0,.6.2-.4.2-.5.3c-.7.3-.8.4-.8,1.4s.1,2.5.1,2.7,0,.5-.2.6c-.2,0-.7.3-1.2.5-1,.4-2.3.7-3.5.7-2.3,0-4.3-.7-5.7-1.8Z"/>
      <path d="M152.4,39.5c.7,0,1.4,0,1.9,0,.8,0,1.3,0,1.9,0s.5,0,.5.2-.2.2-.5.3c-.8.2-.9.2-.9,2.4,0,.9,0,7.2,0,8s0,1.4.2,1.8c.3.4.6.5,2.6.5s1.8,0,2.2-.1c.4,0,.8-.4,1.6-1.6.1-.2.2-.3.3-.3.1,0,.2.2,0,.7,0,.2-.6,1.5-.7,1.6-.1.2-.3.2-.4.2-1,0-2,0-3.1,0-.9,0-3,0-3.8,0s-1.3,0-1.6,0-.5,0-.5-.1.2-.2.4-.2c1.1-.2,1.2-.5,1.3-1.2,0-.8,0-2.1,0-5s0-4.4,0-5c0-1-.2-1.4-1.2-1.5-.3,0-.4-.1-.4-.2,0,0,.2-.2.5-.2Z"/>
      <path d="M164.3,39.5c.6,0,1.2,0,1.9,0s1.6,0,2,0,.4,0,.4.2-.2.2-.5.3c-.8.1-1,.4-1,1.1,0,1.1,0,3.5,0,4.9,0,3.1,0,4.9,0,5.5,0,.7.2,1,1.2,1.1.3,0,.4.1.4.3s-.3.2-.5.2-1.4,0-2.1,0-1.3.1-1.9.1-.5,0-.5-.2.2-.2.5-.3c.8-.1,1.1-.5,1.1-1.7,0-1.2,0-3.1,0-4.9s0-5,0-5.2c0-.6-.6-.8-1.1-.9-.2,0-.4-.1-.4-.2,0-.2.3-.2.4-.2Z"/>
      <path d="M175.6,50.5c.2.8.6,1.4,1.1,1.8.7.6,1.6.7,2.2.7,1.8,0,2.8-1.1,2.8-2.6s-.9-2.3-2.8-3.5c-1.6-1-3.1-2.2-3.1-4.1s.5-2.1,1.4-2.7c.8-.6,1.9-.9,2.9-.9s2.1.4,2.4.5c.2,0,.3.2.3.3,0,.6.1,1.3.2,1.6,0,.3,0,.5,0,.5s-.2-.1-.3-.4c-.2-.6-.5-1.1-1-1.4-.5-.4-1.2-.6-1.9-.6-1.1,0-2.5.6-2.5,2.5s.7,1.9,1.4,2.4c.8.6,1.6,1,2.4,1.5.9.6,2.3,1.6,2.3,3.4s-2.2,3.9-4.5,3.9-2.3-.3-3-.6c-.3,0-.4-.5-.4-.8,0-.4-.1-.8-.2-1.6,0-.3,0-.5.1-.5.1,0,.3.2.4.5Z"/>
      <path d="M185.4,39.2c0,0,.1,0,.3.1s.4.1.7.2,2.6,0,5,0h3.9c1,0,1.4,0,1.8-.2.1,0,.3-.2.4-.1,0,0,0,.1,0,.3,0,.2-.2,1.1-.1,2.1,0,.3,0,.6-.2.6s-.2-.2-.2-.4c0-.3-.3-1.1-.4-1.3-.2-.2-.2-.4-1-.4h-3.4c-.1,0-.2.3-.2.4v7.6c0,1.3,0,2.8,0,3.5,0,.6.4.9,1.1,1,.3,0,.5.2.5.3s-.4.2-.5.2c-.7,0-1.2-.1-2-.1s-1.7.1-2,.1-.5,0-.5-.2c0-.1.2-.2.5-.3,1.1-.1,1.2-.4,1.2-1.5,0-2.2.1-10.3.1-10.6s0-.4-.1-.4h-1.8c-1,0-1.6,0-1.9,0-.4,0-.8.4-1,1.5,0,.3-.1.4-.2.4s-.2-.2-.2-.4c0-.5.2-1.4.2-2.2,0-.1,0-.3,0-.3Z"/>
      <path d="M199.9,39.5c.5,0,1.3,0,2,0s1.2,0,1.8,0,.5,0,.5.2c0,.2-.3.2-.5.2-1.1.2-1.1.9-1.1,1.9,0,1.8,0,2.9,0,4.2v1.4c0,2,.4,3.1,1.1,3.9.8.9,2.2,1.3,3.2,1.3,2.9,0,4.3-1.6,4.3-6.1v-1.9c0-3.9-.1-4.3-.8-4.5-.2,0-.4,0-.6-.1-.2,0-.4-.1-.4-.2s.2-.2.4-.2c.5,0,.9,0,1.6,0s1.1,0,1.6,0,.5,0,.5.1-.1.2-.5.3c-.9.2-1.1.6-1.1,1.5,0,1.4-.1,2.8-.1,4.3,0,3.1-.4,4.9-1.7,6.2-1.1,1.1-2.6,1.5-3.8,1.5s-2.7-.3-3.6-.9c-1.4-1-1.9-2.4-1.9-5.5,0-1.9,0-3.9,0-5.6,0-1-.2-1.2-1-1.4-.1,0-.6-.1-.6-.3,0-.2.4-.2.6-.2Z"/>
      <path d="M215.8,53.1c-.3,0-.5,0-.5-.2s.2-.2.5-.3c.9-.1,1-.3,1.1-1,0-.5,0-1.3,0-5.1s0-4.9,0-5.3c0-.8-.2-1.1-1.1-1.2-.3,0-.5-.1-.5-.3s.2-.2.4-.2,1.1,0,1.7,0c1.1,0,2.2-.2,3.3-.2,1.9,0,3.5.2,5.1,1.1,1.9,1.1,3.4,3,3.4,5.8,0,4.2-3.1,6.2-6,6.8-.8.2-1.7.2-2.1.2s-1,0-1.6,0c-.7,0-1.4-.1-2-.1-.6,0-1.4,0-1.7,0ZM218.9,40c-.1,0-.3.3-.3.6,0,.9-.1,1.5-.1,5.3s0,3.4.1,4.5c0,1.4.2,1.6.7,1.9.5.3,1.6.6,2.2.6,1.1,0,1.9-.2,2.6-.5,1.4-.7,3.2-2.3,3.2-5.8s-.4-3.7-2-5c-1.3-1.1-2.9-1.7-4.9-1.7-.6,0-1.3,0-1.6.2Z"/>
      <path d="M232.1,39.5c.6,0,1.2,0,1.9,0s1.6,0,2,0,.4,0,.4.2-.2.2-.5.3c-.8.1-1,.4-1,1.1,0,1.1,0,3.5,0,4.9,0,3.1,0,4.9,0,5.5,0,.7.2,1,1.2,1.1.3,0,.4.1.4.3s-.3.2-.5.2-1.4,0-2.1,0-1.3.1-1.9.1-.5,0-.5-.2.2-.2.5-.3c.8-.1,1.1-.5,1.1-1.7,0-1.2,0-3.1,0-4.9s0-5,0-5.2c0-.6-.5-.8-1.1-.9-.2,0-.4-.1-.4-.2,0-.2.3-.2.4-.2Z"/>
    </g>
    <g>
      <path d="M120.4,64.7c0,.2.3.7.5.7.1,0,.1-.3,0-.6,0-.6-.3-2.5-.3-2.9,0-.3-.3-.3-.9-.3h-.2c-.6,0-1.5,0-2.6,0-1.7,0-3.9,0-5.9,0s-1.3,0-1.9,0c-.6,0-1.3,0-1.9,0s-.4,0-.4.2.2.2.5.3c1.2.3,1.8.5,1.8,1.8,0,1.4,0,2.9,0,4.9,0,.8,0,1.6,0,2.6,0,3.5,0,6.9-.1,8.3-.1,1.4-.6,1.6-1.7,1.8-.6.2-.7.2-.7.3s.3.2.7.2.2,0,.5,0c.6,0,1.7-.1,2.4-.1s1.1,0,1.6.1c.5,0,1,.1,1.5.1s.6-.1.7-.2c0,0,0-.1-.5-.2h0c-1.2-.3-1.9-.4-2-2,0-1.4,0-5.6,0-6.8s.1-.6.4-.6c4.8,0,5.6,0,6.2.2.5.1.9.7,1.1,1.5.2.5.3.6.3.6,0,0,.2,0,.2-.5s0-.5,0-.9c0-.4,0-.8,0-1s0-.7,0-1.1c0-.4,0-.9,0-1.2s0-.4-.1-.4-.1,0-.3.5c-.4,1-.8,1.4-1.5,1.5-.6,0-2.2,0-5.8,0s-.4-.3-.4-.4c-.1-1.4,0-7.7,0-8.1,0-.1.2-.7.4-.7.9,0,4.7,0,5.9,0,1.4,0,1.9.8,2.6,2.3Z"/>
      <path d="M124.8,82.1c.4,0,.9,0,1.4,0,.5,0,1,0,1.5,0s1.4,0,2.1,0c.5,0,.9,0,1.1,0,.6,0,.7,0,.7-.2s-.2-.2-.6-.3c-1.5-.3-1.8-.7-1.9-1.8,0-.7,0-2.2,0-4.8,0-1,0-2.2,0-3.5,0-2.1,0-5.8.1-7.5,0-1.2.4-1.6,1.6-1.8.6-.1.7-.2.7-.3s-.3-.2-.6-.2-.8,0-1.3,0c-.6,0-1.3,0-1.8,0s-1.1,0-1.6,0c-.4,0-.9,0-1.4,0s-.6,0-.6.2.2.2.5.3c.9.2,1.7.4,1.8,1.4,0,.4,0,4.4,0,8s0,5.6,0,7.5c0,1.8-.5,2.4-1.8,2.6-.6.1-.7.2-.7.3,0,0,.2.2.6.2Z"/>
      <path d="M143.3,73c.2.3.5.8.9,1.4,1.1,1.6,2.7,4,4,5.4,1.5,1.6,2.5,2.5,4.8,2.5s1.3,0,1.6-.2c.2-.1.2-.2.2-.2,0,0,0,0-.2,0-.9,0-1.9-.5-2.8-1.2l-.2-.2c-.6-.6-1.3-1.3-2.3-2.6-1.3-1.8-3.1-4.2-3.9-5.7-.1-.2-.2-.4-.1-.5,0-.1.2-.2.2-.2,3.4-1.1,3.9-3.5,3.9-4.8s-.8-2.9-2.1-3.7c-1.2-.9-2.6-1.2-4.7-1.2s-1.5,0-2.3,0c-.7,0-1.5,0-2.3,0s-1.3,0-1.8,0c-.3,0-.5,0-.7,0-.3,0-.6,0-.6.2,0,.1.2.2.6.3,1.4.2,1.7.8,1.8,1.7,0,.9,0,2.6,0,7.1s0,7-.1,8.8c0,1.2-.5,1.6-1.7,1.8-.6.1-.7.2-.7.3s.2.2.7.2.6,0,.9,0c.4,0,1,0,1.7,0s1.4,0,2,0c.5,0,.9,0,1.2,0s.7,0,.7-.2-.3-.2-.6-.3c-1.1-.2-1.6-.6-1.6-1.3,0-.3-.2-1.1-.2-3.3v-4.1c0-.3.1-.7.4-.7.5,0,1.3,0,1.6,0,.5.1,1.1.4,1.5.8ZM140.2,71.6h0c-.3,0-.4-.2-.4-.7s0-7,.1-7.5c0-.5.1-.9.3-.9.4-.2,1.4-.3,1.8-.3,1.6,0,3,.6,4.1,1.7.8.9,1.2,2.1,1.2,3.3,0,2.2-1.4,3.3-2,3.7-.6.4-1.6.8-3.1.9h0c-.7,0-1.4,0-1.9,0Z"/>
      <path d="M157.9,82c.6,0,1.5,0,2.2,0,1.5,0,3.1,0,4.8,0,1.8,0,3.6,0,5.6,0s.5-.2.6-.4c0-.4.6-2.3.8-2.6.2-.5.2-.7.1-.8,0,0,0,0,0,0,0,0-.2.1-.4.5-.6,1-1.1,1.7-1.5,2.1-.6.4-.9.6-4.1.6s-3.1,0-3.6-.1c-.8-.1-.9-.7-.9-2,0-.7-.2-6-.1-7.1,0-.3.2-.5.4-.5,4.5,0,5.7,0,6.3.2.5,0,.7.7.9,1.2,0,0,0,.1,0,.2h0c.2.5.3.7.4.7s.1-.3,0-.6c0-.3,0-1.5,0-2,0-.2,0-.6.1-1,0-.4.1-.9.1-1,0-.4,0-.5,0-.5s-.2,0-.3.5c-.4.9-.6,1.2-.9,1.3-.5.2-1.4.4-2.9.4h-3.8c-.2,0-.4-.2-.4-.4,0-.7,0-3.4,0-5.5,0-.9,0-1.7,0-2.2s.1-.6.4-.6c5.6,0,5.9,0,6.4.1h0c.6.1,1.2.8,1.8,2.2.2.4.2.5.3.5s0,0,0,0c0,0,.1-.3,0-.5,0-.4-.1-1.1-.2-1.7,0-.4,0-.6,0-.8,0-.2-.2-.4-.3-.4-.1,0-.3,0-.5,0-.5,0-1.3,0-2.1,0s-1.9,0-3.2,0c-1.6,0-3.2,0-4.2,0s-.9,0-1.4,0c-.5,0-1,0-1.5,0s-.4.1-.4.2.1.2.6.3c1.2.3,1.8.7,1.8,2.4v5.8c0,3.4,0,7.1-.1,9.2,0,1.4-.7,1.7-1.9,2-.4,0-.6,0-.6.3s.5.2.8.2c.2,0,.5,0,.8,0Z"/>
      <path d="M196.2,62.2c.4,0,.7-.3.7-.4,0-.2-.4-.2-.6-.2-.4,0-.7,0-1.1,0-.4,0-.9,0-1.3,0s-1,0-1.5,0c-.5,0-.9,0-1.1,0-.4,0-.7,0-.7.2s.2.3.6.3c1.6.3,2.3.6,2.3,2.6,0,2.6,0,10.6,0,13.1s0,.2-.1.3c0,0-.1,0-.2,0-2.9-3.3-11.2-12.8-13.3-15.5-.5-.6-.6-.7-.7-.7-1,0-1.8,0-2.5-.1-.5,0-1,0-1.3,0s-.6.1-.6.2c0,.1.1.2.7.3h.1c.6.1,1.1.2,1.6.6.4.3.6.8.6,2.5s-.2,11.9-.3,13.4c-.2,2.1-.5,2.8-2,3.1-.4,0-.7.1-.7.3,0,.2.5.2.8.2s.3,0,.6,0c.5,0,1.1-.1,1.8-.1s1.2,0,1.8.1c.4,0,.8,0,1,0,.6,0,.7-.1.7-.2,0-.1-.2-.2-.7-.3-1.9-.4-2.2-.9-2.2-3.8v-13.3c0,0,0-.1.1-.1,0,0,0,0,0,0,.1,0,.2,0,.3.1,4.5,5.1,13.6,16.1,14.2,16.9.8,1,1,1.1,1.1,1.1s0,0,.1,0c.1-.1.1-.4.1-.9,0-1,0-2,0-3.2,0-.8,0-1.7,0-2.8,0-3.1,0-9.9.2-11.3,0-.8.4-1.6,1.8-2Z"/>
      <path d="M200.2,82.1c.1,0,.5,0,1.1,0,1,0,2.5,0,3.2,0s5.1,0,8.2,0c1.8,0,3.2,0,3.4,0,.5,0,1.2,0,1.3-.4,0-.9.6-3,.7-3.3,0-.3.3-.9.1-1-.1,0-.4.2-.5.6-.6,1.3-1,2-1.3,2.4-.5.6-1.1.7-2.1.9h0c-.8.1-9.4.1-10.4,0h0c-.1,0-.4,0-.4-.2,0,0,0-.1,0-.2,2.5-3.7,8.4-12.2,10.3-15,.2-.2.4-.6.7-1,.7-1,1.7-2.3,2.2-2.9,0-.1.1-.2,0-.3,0,0,0,0-.1,0-.2,0-1,0-2.9,0-3.3,0-5.7,0-7.4,0-2.3,0-3.4,0-3.8,0h0c-.7,0-1.1-.2-1.4-.3-.2,0-.2,0-.3,0,0,.1-.1.3-.2.6-.3.7-.7,1.8-1,2.6-.2.7-.2.9,0,.9s.2-.2.4-.4c.7-1.1,1.1-1.6,1.7-2.2.5-.5,1-.5,1.4-.6h0c1.2,0,8.5,0,10.1,0h0c.1,0,.2,0,.3.1,0,.1,0,.2-.1.4,0,0,0,0,0,.1-3.2,4.8-10.1,14.6-13.2,18.6,0,0-.1.2,0,.2,0,0,.1,0,.3,0Z"/>
      <path d="M221.6,82.1c.1,0,.4,0,.8,0,.6,0,1.5,0,2.2,0,1.5,0,3.1,0,4.8,0,1.8,0,3.7,0,5.6,0s.5-.2.5-.4c0-.4.6-2.3.8-2.6.2-.5.3-.8,0-.8,0,0-.2.1-.4.5-.6,1-1.1,1.7-1.5,2.1-.6.4-.9.6-4.1.6s-3.1,0-3.6-.1c-.8-.1-.9-.7-1-2,0-.7-.2-6-.1-7.1,0-.3.2-.5.4-.5,4.5,0,5.7,0,6.3.2.5,0,.7.7,1,1.2,0,0,0,.1,0,.2h0c.2.5.3.7.4.7.1,0,.1-.3,0-.6,0-.3,0-1.5,0-2,0-.2,0-.6.1-1,0-.4.1-.9.1-1,0-.4,0-.5,0-.5s-.2.2-.3.5c-.4.9-.6,1.2-.9,1.3-.5.2-1.4.4-2.9.4h-3.8c-.2,0-.4-.2-.4-.4,0-.7,0-3.4,0-5.5,0-.9,0-1.7,0-2.2s.1-.6.4-.6c5.6,0,5.9,0,6.5.1h0c.6.1,1.2.8,1.8,2.2.2.4.2.5.3.5.2,0,.2-.3.1-.5,0-.4-.1-1.1-.2-1.7,0-.4,0-.6,0-.8,0-.2,0-.4-.3-.4s-.3,0-.5,0c-.5,0-1.3,0-2.1,0s-1.9,0-3.2,0c-1.6,0-3.2,0-4.2,0s-.9,0-1.4,0-1,0-1.5,0-.4.1-.4.2.1.2.5.3c1.2.3,1.8.7,1.8,2.4v5.8c0,3.4,0,7.1-.1,9.2,0,1.4-.7,1.7-1.9,2-.4,0-.6,0-.6.3,0,.2.5.2.8.2Z"/>
    </g>
  </g>
  <g>
    <path d="M50.8,22.6c.1-.4,0-.8,0-.9,0-1.3.6-2.2.7-2.2,0,0,0,0,0,0,1-2.2,0-3.9-.2-4.4l2-4.9h0s0,0,0,0c0,0,0,0,0,0s0,0,0,0c0,0,0,0,0,0,0-.1-1.2-2.9-7.4-3.2-.2,0-4.2-.2-7.1,1.9h0s0,0,0,0h0s0,0,0,0c0,0,0,.1,0,.2,0,.4.4,1.6,1.4,5-.1.3-.4,1.2-.3,2.3,0,0,0,.6,0,1.1,0,0-.5,1.7.1,4.9-1.8.3-3.5.7-5.1,1.3l-1.9-.8h0s0,0-.1,0h0s0,0,0,0c0,0,0,0,0,0,0,0,0,0,0,0h0s-1.4,2.3-1.4,2.3c0,0,0,0,0,0-9.4,4.9-15.8,14.6-15.8,25.9s3.9,16.6,10.1,22c.2.1.3.3.5.4,4.2,3.5,9.3,5.8,15,6.5.2,0,.4,0,.6,0,.3,0,.6,0,.9,0,.2,0,.3,0,.5,0,.5,0,1.1,0,1.6,0s1.1,0,1.6,0c.2,0,.3,0,.5,0,.4,0,.7,0,1.1,0,.2,0,.3,0,.5,0,1.8-.2,3.6-.6,5.3-1.2.2,0,.3-.1.5-.2,1-.3,1.9-.7,2.9-1.2.2,0,.3-.2.5-.2.5-.2,1-.5,1.5-.8.2,0,.3-.2.5-.3,2.6-1.6,5-3.5,7-5.8.2-.2.3-.4.5-.6,4.3-5.1,6.9-11.6,6.9-18.8,0-13.9-9.9-25.6-23-28.5ZM51.4,16.9s0,0,0-.1c.1.7,0,1.5-.4,2.4-.1.2-.8,1.1-.7,2.5,0,0,0,0,0,0,0,0,0,.3,0,.7,0,.1,0,.3-.2.5,0,.1-.1.2-.2.3,0,.1,0,.2,0,.3.3.3.9,1.1.9,1.7,0,0,0,.1,0,.2-1.1-1.1-1.3-2.1-1.4-2.6,0-.1,0-.2,0-.2,0-.1,0-.2.1-.3.1-.3.2-.5.2-.5.3-.6.3-1.2.2-1.7.1,0,.2,0,.3-.1.4-.2.4-.8.4-.9,0-.4.2-.7.2-.7s0,0,0,0c.5-.8.5-1.3.4-1.6ZM54.2,27.8l2.7.8s3.7.9,5,4.9l4,12.4c0,0,1.6,5,2.2,9.3-1.3-2.5-3.6-3.3-3.6-3.3-3.9-1.2-6.4-.3-7.9,1.1,1-2.2,3.1-4.9,7.6-4.1.1,0,.3,0,.3-.2,0-.1,0-.3-.2-.3-3.1-.5-5.2.5-6.5,1.9.4-.8.8-1.6,1.1-2.2,0,0,0-.1,0-.2s0-.1-.1-.1l-2.5-1.2c.2-.8,1.4-4.1,5.6-5.3.1,0,.2-.2.2-.3,0-.1-.2-.2-.3-.2-4.3,1.2-5.6,4.5-5.9,5.6h-.3v-12c0-.1-.1-.2-.2-.2s-.2.1-.2.2v11.7l-4.9-2.3h0s-.8-.3-1.6.7v-9.4c0-.1-.1-.2-.2-.2s-.2.1-.2.2v10.2l-2.6,5.2v-18.3h1.4c.6,0,1.3-.2,1.8-.6l4.5-4c.3.1.7.2,1.1.3ZM63.5,53.8c-1.8-1.1-4.2-1.1-7.1,0,1.4-1.6,3.9-2.9,8-1.6,0,0,3.8,1.3,4.2,6.2,0,0,.6,2.9-1.7,5.6v-3.3c0-.2-.2-5-3.4-7ZM57,60.3l-3,3.4s-.1.2-.4.4h0c-.3.3-.8.7-1.3.7.4-.2.8-.5,1.1-.8.1-.1.1-.2,0-.4-.1-.1-.2-.1-.4,0,0,0-1.8,1.7-3.1,1.1,1.2-.3,2.3-1.3,2.4-1.3.1,0,.1-.2,0-.4s-.2-.1-.4,0c0,0-1.6,1.4-3,1.3-.2,0-.3,0-.4,0,.8-.1,1.8-.6,2.9-1.6.1,0,.1-.2,0-.4,0-.1-.2-.1-.4,0-1.3,1.2-2.4,1.7-3.2,1.4-.6-.2-.9-.6-1.1-1l.7.3s0,0,.1,0h0s0,0,0,0h0s.7-.3,1.4-.8c0,0,0,0,0,0,.2-.1.4-.3.6-.5l1.9-2.5c0,0,0-.2,0-.2,0,0-.1-.1-.2-.1h-1.7c0-.1-.1-.1-.1,0-.8.5-1.4.4-1.6.2l1.5-.9s2.8-1.4,4.4-.5c.2,0,.3,0,.4-.1.3-.2,1.1-1,2.4-.4,0,0,.9.5,1.1,1.4,0,.5,0,1.1-.5,1.7ZM25.9,61.9s0,0,0,0t0,0c-2.7-4.8-2.8-10.7,3.8-28.1.8-2.4,2.4-3.6,3.6-4.3l2.7,10.4-.6.6c-.8,1.1-.6,1.9-.3,2.5v.2c.4,1.1,0,3.4-.5,4.1-.3.7-.8,1.7-1,2.1h0c-.6,1.3,0,2.2.8,2.7.8.5,1.5.8,2.2,1,0,0,0,0,0,0,1.1.3,2.3.4,3.4.4l.9,3.5c-1.1,1.3-4.4,2.5-7.7,1.7-1.1-.3-2.1-1-2.7-1.9-.9-1.3-1-2.9-.9-4.1,0-1,.3-2,.5-2.9,0-.5.2-.9.3-1.4,0-.4.2-1,.1-1.5,0-.1-.1-.2-.3-.2s-.2.1-.2.3c0,.5,0,1.1-.1,1.4,0,.5-.2.9-.3,1.4-.2,1-.4,2-.5,3-.1,1.8.2,3.3,1,4.4.7,1,1.8,1.8,3,2.1.8.2,1.6.3,2.3.3,2.5,0,4.7-.9,5.7-1.9l.3,1.2-.3.7h0c0,.2-.1.3-.1.3,0,.1,0,.2.1.2l3.2,1.6c-1.8-.1-2.8.6-2.8.6-6.7,3.9-10.7,3.3-12.9,2.1-1.8-.9-2.6-2.4-2.6-2.4ZM33.7,28.6c.3,0,.6-.2.8-.4,0,0,0,0,.1,0,.3,0,.6,0,.8-.2h0c0,.1.1.6.1.6l2.6,9.8c-.5,0-.9.2-1.2.5l-.5.5-2.7-10.2v-.5c-.1,0-.2-.1-.2-.1ZM34.2,27.7c-.1,0-.3,0-.4-.1-.2,0-.3-.2-.4-.3,0-.1-.2-.2-.3-.3-.2-.4-.3-.8-.2-1.2v-.8c0,0,.1-.6.1-.6v-.8c0,0,.5.5.5.5l.3.4.5.6s0,0,0,0c.3.3.5.7.5,1.1,0,.2,0,.4,0,.6,0,.2-.1.3-.2.5,0,0,0,.1-.1.2,0,0-.1.1-.2.2,0,0,0,0-.1,0ZM38.2,27.8s0,0,0,0l2.4,3.1s0,0,0,0c.5.6,1.2.9,2,.9h2.3v19.4l-1.6,3.3-1-3.4v-18c0-.1-.1-.2-.2-.2s-.2.1-.2.2v16.2l-1-3.5c.3-.2.5-.5.4-1,0,0,0,0,0,0l-.2-.4c.2-.1.3-.3.4-.6,0-.2,0-.4-.2-.8l-.4-.5c.1-.2.3-.5.3-.8,0-.3-.2-.6-.5-.8l-.7-.4c0-.5-.3-.9-.4-.9l-.9-.9-2.7-10.2,1.4-.4c.3-.1.5-.2.8-.3ZM48.5,45.3s0,0,0,0c.4-.8.8-1.1,1.1-1.2l-7.4,14.6c-.1,0-.3,0-.4.1l1.6-3.4h0l5-10.1ZM47.4,62.5l-5.9-2.9c0-.1.3-.3.9-.4l5.8,2.9c-.4.2-.7.4-.8.5ZM39,47.7c0-.1,0-.3-.1-.4,0-.3-.2-1.1,0-1.6,0-.1.2-.2.4-.3,0,0,.4-.1.8,0,.2,0,.3.2.3.4l2.7,9.5-1.3,2.7-2.7-10.4ZM34.7,51.7c-1.1-.9-.7-1.7-.6-2h0c.4-1,.8-1.7,1-2.1.4-.8.9-3.3.5-4.5v-.2c-.3-.6-.4-1.2.2-2.1l.4-.4.4-.4.7-.7s.5-.5.9-.3c0,0,0,0,0,0l.7.6.3.3s0,.1.2.3h-.3c0-.2,0-.2,0-.2-.1,0-.3-.2-.6-.2s-.4,0-.6.2l-1,.9-.3.3c0,0,0,.1,0,.2h0c0,.1,0,.1,0,.2,0,.1.2.1.3,0h.1c0-.1,1.1-1.1,1.1-1.1.2-.1.3-.1.4,0,0,0,.2,0,.2,0l.4.3.3.2h0s.7.4.7.4c.2.1.2.3.3.4,0,.1,0,.3-.1.4l-.3-.4c-.1-.1-.3-.2-.6-.3-.2,0-.3,0-.5,0-.1,0-.2,0-.3.1l-1,.6c-.1,0-.2.2,0,.3,0,.1.2.2.3,0l1-.6c0,0,.2,0,.2-.1.2,0,.4,0,.5,0,0,0,0,0,0,0l.5.6h0l.6.6c.1.2.1.3,0,.3,0,0,0,.2-.2.2v-.2c0,0-.1,0-.1,0s-.2-.3-.6-.4c-.2,0-.3,0-.5,0,0,0,0,0-.1,0l-1.2.2c-.1,0-.2.2-.2.3,0,.1.2.2.3.2l1.2-.2c0,0,0,0,.2,0,.3,0,.5.2.6.2h0c0,0,.5,1,.5,1,0,.1,0,.2,0,.3,0,0,0,0,0,0-.1-.2-.3-.3-.5-.4,0,0-.1,0-.2,0-.5-.1-.9,0-1,0-.3,0-.5.2-.7.5,0,0,0,0,0,.1-.3.7,0,1.8,0,1.8,0,0,0,0,0,.1.5,1.6-1.4,4.4-1.9,5.1-.6-.2-1.2-.5-1.9-.9ZM38.9,49.2l1,3.8c-.9,0-1.8,0-2.8-.3.4-.6,1.4-2.1,1.8-3.6ZM28.3,64.8c0,0,.2,0,.2.1l3.4,8.1s.9,2.3,3,2.3.7,0,1.1-.2c0,0,1.3-.5,1.9-2.2-.3,2.8-2,3.5-2.1,3.6-.7.4-1.4.4-2.1.2-1.9-.7-3.1-3.7-3.2-3.7l-3.9-9.4c.4.4,1,.8,1.6,1.2ZM38,69.6h0s0,0,0,0h0s0,0,0,0,0,0,0,0c0,0,0,0,0,0,0,0,0,0,0,0s0,0,0,0h0s0,0,0,0c0,0,0,0,0,0,0,0,0,0,0,0h0s0,0,0,0c0,0,0,0,0,0,.2,3.9-1.8,4.7-1.9,4.7-2.4.8-3.4-1.7-3.5-1.8l-3.2-7.6c2.5.9,6.5,1,12.6-2.6,0,0,1.6-1.1,4.2-.2-.4.9-3.2,7.1-7.9,7.3ZM54.3,56.5s0,0,0,0c0,0,0,.1,0,.2h0c-.2.1-.3.2-.5.4-1.9-.8-4.6.5-4.7.6l-1.8,1.1c0,0-.1.1-.1.2,0,0,0,.1,0,.2,0,0,.9,1.1,2.5.1h1.1c0,0-1.6,2.2-1.6,2.2-.1.1-.2.2-.4.3l-5.9-2.9,7.4-14.6,8.1,3.8c-2.4,5-3,6.3-3.2,6.7-.4.7-.7,1.3-.9,1.8ZM48.3,31c-.4.3-.9.5-1.4.5h-4.2c-.6,0-1.2-.3-1.6-.8l-2.4-3.1c.3-.1.5-.3.7-.4l2.3,3.1c.3.3.7.5,1.1.5h4.2c.3,0,.7-.1.9-.3l4.1-3.6c.2.1.5.2.7.4l-4.3,3.8ZM47.5,30c-.2.1-.4.2-.6.2h-4.2c-.3,0-.5-.1-.7-.3l-2.2-3c.2-.1.4-.3.6-.4,0,.2.2.4.4.6,0,0,0,0,0,0,.1.8.5,1.6,1.5,2.2,0,.1,0,.2,0,.2,0,0,.1.1.2.1h0c0,0,.2,0,.2,0,0,0,.4-.5,1.1-.5,0,0,1.6,0,2.6-1.2.2,0,.8-.2,1.1-.8.1-.2.2-.4.2-.7.8-.3,1.3-.7,1.5-1.3,0-.2.1-.4.1-.6.4.6,1,1.4,2,2l-4,3.5ZM51.3,13.8l-.4,1c-3-1-5.5-1.3-7.4-1.3s-2.5.2-2.9.2c0-.3-.2-.7-.3-1,1.1-.3,6-1.4,11.1,1.1ZM41.8,11.4c-1-1-.7-2-.5-2.5,1.1,1.1.7,2.1.5,2.5ZM42.4,10l1.2-1.6,1.4,1.6c0,.5,0,1,.4,1.6-1.3,0-2.4,0-3.3.1.2-.3.5-1,.3-1.8ZM49.5,12.5c-1.2-.4-2.3-.6-3.4-.7.2-.2.7-.8.8-1.5l1.8-1.1.9,1.7c-.2.4-.3,1-.2,1.7ZM45.8,11.3c-.6-1.2,0-2.1.3-2.6.7,1.3,0,2.2-.3,2.6ZM51,9.9c.2,1.5-.7,2.1-1.1,2.3-.2-1.4.6-2.1,1.1-2.3ZM50.5,17c-.5.4-.6,1-.6,1.1,0,.4-.1.6-.2.7,0-.1,0-.2-.1-.2-.6-1-.6-1.8-.6-2,0,0,0,0,0,0h0c0-.8,0-1.4,0-1.8.6.2,1.3.4,2,.6,0,0,.1.2.2.3.2.8-.1,1.1-.6,1.4ZM50.9,17.3c0,.2,0,.5-.3.9,0,0-.4.5-.4,1.1,0,.1,0,.4-.1.4,0,0,0,0-.1,0,0-.2,0-.3-.1-.5.2-.1.5-.4.5-1.1,0,0,.1-.5.5-.8,0,0,0,0,0,0ZM43.5,19.8c0,0-.3,0-.4,0-.1,0-.9,0-1,0-.2,0-.2,0-.2,0,0-.1,0-.3,0-.4l.5-2.7s0,0,0,0c-.2-1.1-1.3-1.4-2.1-1.4,0-.5.2-.9.2-1.1.6-.1,3.7-.6,7.8.3.1.5.6,2.5-1.1,6.1,0,0-.4.6-.6,1.4,0,.1,0,.2,0,.3-.1-.2-.3-.3-.4-.4,0,0,0,0,0,0-.3-.2-.5-.6-.6-.8-.5-1.2-1.1-1.5-1.5-1.6,0,0,0,0,0-.1,0-.1-.1-.2-.3-.2-.1,0-.2.1-.2.3,0,.2,0,.3,0,.3ZM40.4,16.4c0-.1,0-.2,0-.2,0-.2,0-.3,0-.5.4,0,1.4.1,1.6.9h0c-.2,0-.7-.3-1.5-.2ZM41.4,17.1c-.3.2-.7.4-1.1.3,0-.2,0-.3,0-.5.5,0,.8,0,1,.2ZM40.3,18c0,0,.1,0,.2,0,.4,0,.9-.2,1.3-.4l-.3,1.8s0,.4,0,.7c-.3.2-.6.7-.8,1.8,0,.1,0,.3-.2.5-.4-2.2-.3-3.6-.2-4.3ZM40.6,23.1s0,0,0,0h0c0-.1.2-.2.2-.4,0-.2.2-.4.2-.5,0-.2,0-.3,0-.3.2-1.1.5-1.5.6-1.5,0,0,.2,0,.3,0h1s0,0,.1,0c.2,0,.4,0,.6-.2,0,0,0,0,0-.1.2,0,.7.2,1.2,1.3,0,0,.1.3.4.6.1.1.2.3.4.4,0,0,0,0,.2.1.2.1.4.5.4,1.1,0,0,0,0,0,0,0,0,0,0,0,0,0,0,0,0,0,0,0,0,0,0,0,0,0,0,0,0,0,0,0,0,0,0,0,0,0,0,0,0,0,0h0s0,0,0,0c0,0,0,0,0,0,0,0,0,0,0,0,0,0,0,0,0,0s0,0,0,0c0,0,0,0,0,0,0,0,0,0,0,0,0,0,0,0,0,0,0-.3,0-.6,0-.9,0-.2,0-.3.1-.5.2-.6.5-1.1.5-1.2.5-1.1.9-2.1,1.1-2.9,0,.3.2.5.4.8,0,0,.9,1.6.3,2.8,0,0-.2.3-.3.6,0,.1-.1.3-.1.5,0,0,0-.1,0-.1,0-.1-.2-.1-.4,0,0,0,0,0,0,.1,0,0,0,.1,0,.2,0,0,.8,1.2.5,2.1-.1.4-.5.7-1,.9,0-.4-.1-.8-.3-1.3,0-.1-.2-.2-.3-.1s-.2.2-.1.3c.3.9.3,1.6,0,2.1-.3.5-.9.6-.9.6,0,0-.1,0-.2.1-.7,1.1-2.2,1.1-2.2,1.1-.5,0-.9.2-1.2.4-.1-.5-.3-1.5.2-2.9,0-.1,0-.3-.1-.3-.1,0-.3,0-.3.1-.4,1.1-.5,2-.4,2.6-1.5-1.4-.6-3.4-.6-3.5,0-.1,0-.3-.1-.3-.1,0-.3,0-.3.1,0,0-.3.5-.3,1.3,0,0,0,0,0,0,0-.1,0-.2,0-.3-.2-.9.2-1.6.3-1.6,0-.1,0-.3,0-.4-.1,0-.3,0-.3,0,0,0-.1.2-.2.4-.1-.8.2-1.2.3-1.3ZM51.5,13.3c-.5-.2-.9-.4-1.4-.6.4-.2,1.1-.7,1.4-1.6l1.1-.5-1.1,2.8ZM45.9,7.3c4.9.2,6.5,2,6.9,2.6l-1.2.5c0-.3,0-.6,0-1,0,0,0-.1-.1-.2s-.1,0-.2,0c0,0-.7.3-1.2.9l-.9-1.7c0,0,0-.1-.2-.1,0,0-.1,0-.2,0l-1.8,1.1c0-.4-.2-.9-.5-1.4,0,0-.1-.1-.2-.1,0,0-.1,0-.2,0,0,0-.6.5-.8,1.3l-1.3-1.6c0,0-.1,0-.2,0s-.1,0-.2.1l-1.2,1.6c-.2-.4-.4-.8-.9-1.1,0,0-.1,0-.2,0,0,0-.1,0-.2.1,0,0-.3.6-.4,1.3l-1.2-.8c2.8-1.8,6.5-1.6,6.5-1.6ZM40.1,12.2c-.3-1.1-.6-2.1-.8-2.7l1.3.9c0,.5.4,1.1.9,1.6-.6,0-1.1.2-1.4.3ZM40.1,22.8s0,0,0,0c-.2.3-.6,1.1,0,2.4,0,.2,0,.5,0,.8-.7.5-1.7,1.2-2.9,1.6l-1.4.4v-.2c.4-.3.7-.8.9-1.4.1-.6,0-1.2-.3-1.7-.2-.4-.6-.6-.9-.8,1.5-.5,3-.9,4.6-1.1ZM34.2,23.9l.7.3h.3c0,.1,0,.1,0,.1.4.1.7.4.9.7.2.4.3.9.2,1.3,0,.4-.4.8-.8,1.1,0,0,0,0,0,0-.2.1-.3.2-.5.2,0,0,0,0,0,0,0,0,0,0,0,0,0-.1.2-.3.2-.5.1-.3.2-.7.1-1,0-.5-.3-1-.7-1.4l-.4-.5-.3-.4-.2-.3.4.2ZM32.5,24.1v.5c0,0-.1.6-.1.6v.5c-.1.5,0,1.1.3,1.5.2.2.3.5.6.6.1.1.3.2.5.3,0,0,0,0,0,0,0,0,0,0,0,0-.1,0-.3,0-.4,0h-.1c-.4,0-.8-.1-1.2-.4-.4-.3-.6-.7-.7-1.2,0-.4,0-.7.2-1s0-.1,0-.2l.4-.6.5-.7ZM15.9,51.1c0-10.9,6.1-20.3,15-25.2,0,.2,0,.5,0,.7,0,.6.4,1.1.8,1.5.4.3.9.5,1.4.5h0v.3c-1.2.6-3,2-3.8,4.6-6.7,17.5-6.5,23.6-3.8,28.5v10.4c-5.9-5.2-9.6-12.9-9.6-21.3ZM26,72.9v-9.7l4.1,9.9c0,.1,1.3,3.2,3.4,4,.3.1.7.2,1,.2.5,0,1-.1,1.5-.4,0,0,1.9-.9,2.3-3.6.4,1.8,1.2,4.1,2.3,6.3-5.6-.8-10.6-3.1-14.7-6.6ZM41.3,79.6c-1.8-3.3-2.6-6.9-2.9-8.6,0-.3,0-.6-.1-.9,2.2-.2,4.2-1.6,6-3.9.9-1.3,1.6-2.5,1.9-3.2.2.4.6.9,1.2,1.1.1.1.3.3.4.4l-5.1,15.3c-.5,0-.9,0-1.4-.1ZM44.6,79.8c-.5,0-.9,0-1.4,0l3.1-9.1v9.1c-.5,0-1.1,0-1.6,0ZM46.8,79.7v-10.5l1.1-3.1v13.6c-.3,0-.7,0-1.1,0ZM48.3,79.6v-14.9c.2,0,.4.1.6.1,0,0,.1,0,.2,0h0c.4.4.9.5,1.4.5s.8-.1,1.2-.2c.2.1.4.2.6.2.5,0,.9-.2,1.3-.5v13.6c-1.7.5-3.4.9-5.3,1.2ZM54.1,78.2v-13.8c.2-.2.3-.3.3-.4l2.5-2.9v15.9c-.9.4-1.9.8-2.9,1.2ZM57.4,76.8v-16.2c.5-.7.6-1.4.5-2.1-.2-1.1-1.3-1.8-1.4-1.8-.2-.1-.4-.2-.7-.2.6,0,1.1,0,1.5.3,1.7,1.1,1.6,4.7,1.6,4.7v14.5c-.5.3-1,.6-1.5.8ZM59.4,75.7v-14.2c0-.2.1-3.9-1.8-5.1-.7-.5-1.6-.5-2.7-.1.2-.4.4-.8.6-1.2h0c0,0,.1-.2.2-.3,3.1-1.4,5.6-1.6,7.5-.5,3,1.8,3.2,6.6,3.2,6.6v3.9h0v5c-2,2.3-4.3,4.3-7,5.9ZM66.9,64.9c2.9-2.9,2.2-6.3,2.1-6.4,0-.5-.1-1-.2-1.5h0c-.3-4.8-2.4-11.3-2.4-11.4l-4-12.4c-1.4-4.3-5.2-5.2-5.4-5.2l-2.7-.8c-.4-.1-.8-.2-1.1-.4,0,0,0,0,0,0-.8-.3-1.4-.7-1.9-1.1,0-.1.1-.3.1-.5,0-.7-.6-1.6-.9-1.9,0-.1.1-.2.2-.3,12.9,2.8,22.6,14.3,22.6,28s-2.4,13.1-6.4,18v-4.3h0Z"/>
    <path d="M41.5,21.9c.1,0,.3,0,.3-.1,0,0,0-.2.5,0,.4.1,1.2,0,1.3,0,0,0,.3,0,.4.2,0,0,0,0,0,.1,0,0,0,.2.1.4.1.4.4,1,1,1.5,0,0,1.2,1.3.6,2.8,0,.1,0,.3.1.3,0,0,0,0,.1,0,.1,0,.2,0,.2-.1.8-1.8-.6-3.3-.7-3.4-.4-.4-.6-.8-.8-1.2-.1-.3-.1-.5-.1-.5s0,0,0,0c-.1-.6-.7-.7-1-.7-.3,0-.9,0-1.1,0-.7-.2-1,0-1.1.3,0,.1,0,.3.1.3Z"/>
    <path d="M43.6,22.1s-.2,0-.4,0c-.8,0-1.4,0-1.4,0h-.1c0,0-.2,0-.2.2,0,.1,0,.3.2.3,0,0,0,0,0,0,0,0,.3,0,.7,0,0,.1,0,.4,0,.6,0,.1.1.2.2.2s0,0,0,0c.1,0,.2-.2.2-.3,0-.2,0-.3,0-.4,0,0,.2-.1.3-.2.1,0,.2,0,.4,0,.1,0,.2,0,.2-.2,0,0,0,0,0-.1,0-.1-.1-.2-.2-.2Z"/>
    <path d="M43.3,24.2c-.5,0-.7-.1-.7-.2,0,0-.2-.1-.3,0,0,0-.1.2,0,.4,0,0,.3.3,1,.3h0c.1,0,.2-.1.2-.2,0-.1-.1-.3-.2-.3Z"/>
    <path d="M47.1,16.4c.1,0,.3,0,.3,0,0-.1,0-.3,0-.3-2.4-1.5-4.1.2-4.1.2-.1.1-.1.3,0,.4,0,0,.1,0,.2,0s.1,0,.2,0c0,0,1.4-1.4,3.5-.1Z"/>
    <path d="M43.9,16.9c0,0,0,.1,0,.2,0,0,0,.1,0,.2.6.5,1.1.7,1.5.7.8,0,1.4-.5,1.4-.5,0,0,0-.1,0-.2s0-.1,0-.2c-1.6-1.4-2.9-.2-2.9-.1ZM44.5,17.1c.3-.2,1-.4,1.7.1-.3.2-1,.4-1.7-.1Z"/>
  </g>
  <g>
    <path d="M60.2,13.4c0,0,0,.1,0,.1-.1.3-.2.6-.2.7,0,.1,0,.2-.1.2,0,0,0,0,0-.2,0-.3,0-.6-.2-.8-.2-.3-.5-.5-.8-.6-.5-.2-1.4,0-1.8.9-.2.6,0,1.1.3,1.5.3.4.6.8.8,1.2.3.4.7,1.1.4,2.1-.4,1.2-1.8,1.5-3,1.1-.5-.2-1.1-.5-1.4-.8,0-.1-.1-.2,0-.4,0-.2,0-.6.2-.8,0-.1,0-.2.1-.2,0,0,0,0,0,.3-.1.9.5,1.5,1.1,1.8.9.3,1.7-.2,1.9-.9.3-.7-.1-1.3-.7-2.1-.6-.9-1.1-1.7-.7-2.6.2-.6.6-1,1.2-1.1.4-.1.9-.1,1.6,0,.5.2,1,.5,1.1.6Z"/>
    <path d="M60.2,21.2c.5.2.7,0,1-.4.6-.9,2.9-4.9,2.9-5,0-.1,0-.1,0-.2,0,0-.3-.2-.7-.5-.4-.2-.7-.4-.9-.4-.2,0-.4,0-.8.3-.1,0-.2.1-.2,0,0,0,0-.1,0-.2.2-.3.5-.5.6-.8,0,0,0-.1.1-.1s0,0,0,.1c0,0,.1.2.3.3.1.1,1.1.7,2.2,1.3.8.4,1.7,1,2,1.1.2.1.4.2.6.2,0,0,0,0,0,0,0,0,0,0,0,.1-.1.1-.3.4-.5.7,0,.1-.2.2-.2.2,0,0,0-.1,0-.2,0-.2.1-.4,0-.6,0-.1-.1-.2-.9-.6-.3-.2-.8-.5-1-.5,0,0-.1,0-.1.1-.2.4-1.6,2.7-1.8,3.1-.3.6-1,1.8-1.1,2.1-.1.4,0,.5.2.8.1.1.1.1.1.2,0,0-.1,0-.2,0-.2-.1-.5-.4-.9-.6-.5-.3-.8-.4-1-.5-.1,0-.2-.1-.1-.2,0,0,.1,0,.3,0Z"/>
    <path d="M69.1,18.4c.2.2.4.4.7.7.3.2.5.4.7.6,0,0,.1.1,0,.2,0,0-.1,0-.2,0-.5-.3-.7,0-1.1.4-.7.8-1.8,2-2.1,2.4-.6.6-.8,1.3-.8,1.8,0,.6.4,1.2.8,1.6,1,.9,2.1.9,3.6-.7.3-.3.7-.7.9-1,1.4-1.6,1.5-1.8,1.3-2.1,0,0-.1-.2-.2-.2,0,0,0-.2,0-.2,0,0,.1,0,.2,0,.2.2.3.3.6.6.2.2.4.3.6.5,0,0,.1.1.1.2,0,0-.1,0-.3,0-.4-.2-.6,0-.9.3-.5.5-1.5,1.6-2,2.1-.7.7-1.5,1.4-2.4,1.5-.9,0-1.6-.4-2-.8-.4-.4-.9-1-1-1.6-.2-.9.1-1.6,1-2.6.6-.7,1.8-2,2.2-2.5.4-.5.4-.5.1-.9,0,0,0-.1,0-.2,0,0,0,0,.2.1Z"/>
    <path d="M75.7,24.7c.3.4.6.8.9,1.2.2.2.5.6.7.8.5.7.9,1.5,1,2.4,0,1.1-.3,2.3-1.5,3.2-1.9,1.3-3.6.7-4.8-.3-.2-.2-.5-.6-.7-.8-.1-.2-.3-.4-.5-.7-.2-.3-.3-.6-.5-.9-.2-.2-.4-.5-.5-.6,0-.1-.1-.2,0-.2,0,0,0,0,.2.1.3.3.4.3.8,0,.2-.1,1.1-.8,1.9-1.3,1.7-1.2,2.5-1.8,2.7-2,.3-.2.4-.4.2-.8,0,0,0-.2,0-.2,0,0,0,0,.2,0ZM76.4,26s-.1,0-.3,0c-.3.2-.6.4-2.4,1.6-1,.7-1.5,1.1-2,1.5-.5.4-.6.6-.6.9,0,.2,0,.6.3.9.3.4.6.7,1,.9.7.4,2,.6,3.5-.5.9-.6,1.5-1.5,1.6-2.4.1-.9,0-1.6-.6-2.5-.2-.2-.4-.5-.5-.5Z"/>
    <path d="M80.5,32c.2.3.2.6.4.9.2.3.4.6.5.9,0,0,0,.2,0,.2,0,0-.1,0-.2-.1-.3-.4-.4-.3-.9-.1-.5.2-1.7.8-2.4,1.1-1.5.8-2.4,1.2-2.7,1.4-.4.2-.4.3-.3.7,0,.2,0,.2,0,.2,0,0-.1,0-.2-.2,0-.2-.2-.4-.3-.7-.2-.5-.4-.8-.6-1,0,0,0-.2,0-.2,0,0,0,0,.2.2.3.3.5.3,1.1,0,.6-.3,3.4-1.7,3.9-1.9.5-.2.8-.4,1-.5.3-.2.3-.3.2-.7,0,0,0-.1,0-.1,0,0,0,0,.1.1Z"/>
    <path d="M81,43.9c-1.8.5-3.2-.3-3.9-1.1-.3-.4-.6-.9-.8-1.4-.6-2,.6-4.1,2.6-4.7,1.1-.3,2.2-.2,3.3.6.6.4,1.1,1.2,1.3,1.9.6,1.9-.6,4.1-2.6,4.7ZM82.1,37.7c-.8-.4-1.9-.3-2.8,0-.9.2-1.7.9-2.2,1.6-.7.9-.7,1.7-.5,2.4.1.4.4.8.8,1,.6.4,1.7.8,3.3.3,1-.3,1.8-.9,2.4-1.7.4-.5.6-1.3.3-2.1-.2-.6-.8-1.2-1.3-1.4Z"/>
    <path d="M84.8,49.1c-.3.5-.8.8-1.3.8-.7,0-1.1-.3-1.3-.6-.2-.2-.3-.5-.4-.6,0,0,0,0-.2,0-.4.2-1.4,1-1.9,1.4-.5.4-.8.7-1,.9-.3.4-.4.7-.4.9,0,0,0,.1,0,.1s0,0-.1-.1c0-.1,0-.3-.1-.5,0-.7.2-1.2.8-1.8.6-.6,2-1.5,2.3-1.8.2-.2.3-.3.3-.4,0-.1,0-.2,0-.5,0,0,0,0-.1,0-.1,0-1.5,0-1.9.1-.6,0-1,.1-1.1.2-.1,0-.2.1-.3.6,0,.1,0,.2,0,.2s0,0-.1-.2c0-.2,0-.6,0-1,0-.4-.1-.8-.1-1,0-.1,0-.2,0-.2s0,0,.1.2c.1.4.2.5.7.5.7,0,1.6,0,3-.2,1.6-.1,2.3-.2,2.7-.3.3,0,.5,0,.5-.6,0-.1,0-.2,0-.2s0,0,0,.2c0,.2,0,.5,0,.9,0,.5.1.8.2,1.4,0,.7,0,1.2-.3,1.6ZM84.7,46.7s0,0-.2,0c-.2,0-2.6.2-2.8.2-.1,0-.2,0-.2.1,0,0,0,.2,0,.3,0,.3.2.9.3,1.2.2.3.7.6,1.3.5.6,0,1-.2,1.3-.6.3-.4.4-.8.4-1.3,0-.1,0-.3,0-.4Z"/>
    <path d="M85.3,52.6c0,.3-.1.6-.2,1,0,.3,0,.7,0,.9,0,.1,0,.2,0,.2,0,0,0-.1,0-.2,0-.6-.4-.6-.9-.7-1.1-.2-2.6-.4-3.2-.4-.8,0-1.5,0-2,.4-.5.4-.8,1-.8,1.5-.2,1.3.4,2.2,2.6,2.6.4,0,.9.1,1.3.2,2.2.3,2.3.2,2.5-.1,0-.1,0-.2.1-.3,0,0,0-.2.1-.2,0,0,0,0,0,.2,0,.2,0,.4-.1.8,0,.2,0,.6,0,.8,0,.1,0,.2,0,.2,0,0,0,0-.1-.2,0-.5-.2-.5-.8-.6-.7-.1-2.2-.3-2.9-.5-1-.2-2-.4-2.6-1.2-.6-.7-.6-1.6-.5-2.1,0-.6.3-1.3.7-1.7.6-.6,1.3-.8,2.7-.7.9,0,2.7.3,3.3.4.6,0,.6,0,.8-.4,0,0,0-.1.1-.1,0,0,0,.1,0,.2Z"/>
    <path d="M84,61.5c-.1.2-.4.9-.5,1.2,0,0,0,0-.2,0-1.2,0-4.8.4-6.3.6,0,0,0,0,0,.1,1,1.1,3.1,3.5,3.5,3.9.2.2.6.5.7.7,0,0,.1.1.1.2-.1.3-.3.9-.4,1.2,0,.1,0,.2-.1.1,0,0,0-.1,0-.2,0-.7,0-.8-.6-1.1-.4-.2-1.6-.7-2.2-.9-1.2-.4-2.2-.8-2.6-.9-.6-.2-.8-.1-1.1.2,0,0-.1.1-.2.1,0,0,0,0,0-.2,0-.2.4-.8.5-1.1.2-.4.3-.7.3-.9,0-.1.1-.2.2-.2,0,0,0,.1,0,.2,0,.5,0,.6,1,1,.6.3,3.4,1.4,3.9,1.6.1,0,.1,0,0,0-1.2-1.3-3.2-3.6-4.2-4.5-.1-.1-.2-.2-.1-.2,0,0,.2,0,.5,0,1.3,0,4.8-.4,5.8-.4.1,0,.1,0,0-.1-.6-.3-3.3-1.5-3.8-1.6-.4-.1-.6-.2-.8-.2-.3,0-.5.2-.6.4,0,.1-.1.2-.2.1,0,0,0-.1,0-.2,0-.1.2-.5.4-.9s.2-.7.2-.8c0-.1.1-.2.1-.2,0,0,0,0,0,.2,0,.4,0,.5.1.7.1.2.4.4,1.1.7.6.3,2.9,1.4,3.6,1.6.6.2.8.2,1.1.1.3-.1.4-.3.5-.5,0,0,.1-.1.2-.1,0,0,0,.1,0,.2Z"/>
    <path d="M77.1,75.4c-.2.2-.4.4-.7.7-.2.3-.4.5-.6.7,0,0-.1.1-.2,0,0,0,0-.1,0-.2.3-.5,0-.7-.4-1.1-.8-.7-2-1.8-2.4-2.1-.6-.6-1.3-.8-1.8-.8-.6,0-1.2.4-1.6.8-.9,1-.9,2.1.7,3.6.3.3.7.7,1,.9,1.6,1.4,1.8,1.5,2.1,1.3,0,0,.2-.1.2-.2,0,0,.2,0,.2,0,0,0,0,.1,0,.2-.2.2-.3.3-.6.6-.2.2-.3.4-.5.6,0,0-.1.1-.2.1,0,0,0-.1,0-.3.2-.4,0-.6-.3-.9-.5-.5-1.6-1.5-2.1-2-.7-.7-1.4-1.5-1.5-2.4,0-.9.4-1.6.8-2,.4-.4,1-.9,1.6-1,.9-.2,1.6.1,2.6,1,.7.6,2,1.8,2.5,2.2.5.4.5.4.9.1,0,0,.1,0,.2,0,0,0,0,.1-.1.2Z"/>
    <path d="M71,82c-.3.2-.8.5-1.2.8,0,0-.1,0-.4,0-1.2-.4-5.5-1.4-7-1.7,0,0,0,0,0,.1.2.4,2.1,2.9,2.7,3.7.4.6.7.5,1,.4.1,0,.2,0,.2,0,0,0,0,.1-.1.2-.2.1-.5.3-.7.4-.3.2-.5.4-.6.5-.1,0-.2,0-.2,0,0,0,0-.1,0-.2.3-.4.2-.6,0-.9-.2-.4-1.6-2.4-2.2-3.2-.6-.9-1-1.4-1.3-1.9-.1-.2-.2-.3-.1-.4,0,0,.2,0,.5,0,1,.3,5.4,1.4,7.7,1.9,0,0,.1,0,0,0-.2-.3-2.4-3.4-2.7-3.9-.3-.4-.5-.6-.6-.7-.2-.1-.5,0-.7,0-.1,0-.2,0-.2,0,0,0,0-.1.1-.2.2-.1.5-.2.8-.5.3-.2.6-.5.6-.5.1-.1.2,0,.2,0,0,0,0,.1-.1.2-.3.3-.3.5,0,1.1.2.4,2.2,3.4,2.8,4.2.4.6.5.6.6.6.2,0,.3,0,.6-.1.1,0,.2,0,.2,0,0,0,0,.1-.2.2Z"/>
    <path d="M63.1,87.1c-.3.2-.6.2-.9.4-.3.2-.6.4-.9.5,0,0-.2,0-.2,0,0,0,0-.1.1-.2.4-.3.3-.4.1-.9-.2-.5-.8-1.7-1.1-2.4-.7-1.5-1.2-2.4-1.3-2.7-.2-.4-.3-.4-.6-.4-.2,0-.2,0-.2,0,0,0,0-.1.2-.2.2,0,.4-.2.7-.3.5-.2.8-.4,1-.5,0,0,.2,0,.2,0,0,0,0,0-.2.2-.3.3-.3.5,0,1.1.3.6,1.6,3.5,1.9,3.9.2.5.4.8.5,1,.2.3.3.3.7.2,0,0,.1,0,.1,0,0,0,0,0-.1.1Z"/>
    <path d="M59.9,88.7c-.2,0-.7.2-1,.3-.4.1-.8.3-1,.4-.2,0-.2,0-.2,0,0,0,0-.1.2-.2.2-.1.3-.3.3-.4,0-.1-.1-.2-.3-.5-.4-.5-2.8-3.6-3.2-4,0,0,0,0,0,0,0,.4-.3,4.1-.3,4.7,0,.4,0,.7,0,.9,0,.2.3.3.7.2.1,0,.2,0,.2,0,0,0,0,0-.2.1-.2,0-.7.2-.9.2-.2,0-.5.2-.7.3-.1,0-.2,0-.2,0,0,0,0-.1.2-.2.4-.2.5-.5.6-1.4,0-.5.2-2.3.5-5.1,0-.7,0-1.1,0-1.3,0,0,0-.1,0-.1,0,0,.1,0,.2.2.7,1,3.7,4.6,4.4,5.5.2.2.4.4.8.3.1,0,.2,0,.2,0,0,0,0,.1-.2.1Z"/>
    <path d="M51.7,91c-.3,0-.6,0-1,0-.6,0-2.1.3-2.6.3-.4,0-.6,0-.7.1,0,0-.1,0-.1-.2,0-.1-.1-.5-.2-.8,0,0,0-.2,0-.2,0,0,0,0,.1.1.2.5.5.6.7.6.3,0,1.8-.2,2.1-.2,0,0,.1,0,0-.5,0-.4-.2-1.8-.3-2.6,0-.1,0-.2,0-.2l-1.4.2c-.5,0-.7.1-.8.2,0,0-.2.2-.2.5,0,0,0,.1-.1.1,0,0,0,0,0-.1,0,0,0-.4,0-.6,0-.2,0-.6-.1-.6,0-.2,0-.2,0-.2,0,0,0,0,.2.2,0,.1.1.3.3.3.3,0,.6,0,2.1-.2,0,0,0,0,0-.2,0-.6-.3-2.2-.3-2.4,0-.1-.1-.4-.4-.5-.2,0-.4,0-1.1,0-1,.1-1.2.2-1.4.4-.1.1-.2.4-.3.6-.1.2-.1.2-.2.2,0,0,0,0,0-.2,0-.3.1-.8.1-.9,0,0,0-.1.2-.2,1.2-.1,2.5-.3,3.4-.4.4,0,1-.2,1.1-.2.1,0,.2,0,.2,0,0,0,0,0-.2.1-.4.1-.6.3-.5.8.2,1.8.3,3.1.6,5.3,0,.6.2.8.6.8.1,0,.2,0,.2,0,0,0-.1,0-.2.1Z"/>
    <path d="M41.2,91c-.5-.4-.7-.9-.6-1.4,0-.8.4-1.1.7-1.2.2-.1.5-.3.7-.3,0,0,0,0,0-.2-.2-.4-.8-1.6-1.1-2.1-.3-.5-.6-.8-.8-1.1-.3-.4-.6-.5-.8-.5,0,0-.2,0-.2,0s0,0,.1,0c.1,0,.3,0,.5,0,.7,0,1.2.4,1.6,1,.5.7,1.2,2.1,1.4,2.5.1.2.2.3.4.3.1,0,.2,0,.5,0,0,0,0,0,.1-.1,0-.1.1-1.5.1-1.9,0-.6,0-1,0-1.1,0-.1-.1-.3-.5-.4-.1,0-.2,0-.2-.1s.1,0,.2,0c.2,0,.6,0,1,.1.4,0,.8,0,1.1,0,.1,0,.2,0,.2,0s0,0-.2,0c-.4,0-.5.2-.6.6,0,.6-.1,1.6-.2,3,0,1.6,0,2.3,0,2.7s0,.5.5.6c.1,0,.2,0,.2.1s0,0-.2,0c-.2,0-.5,0-.9,0-.5,0-.8,0-1.4,0-.7,0-1.2-.2-1.5-.5ZM43.5,91.3s0,0,0-.2c0-.2.2-2.6.2-2.8,0-.1,0-.2,0-.2,0,0-.2,0-.3,0-.3,0-1,0-1.2.2-.3.2-.7.6-.7,1.3,0,.6,0,1,.4,1.3.3.3.7.5,1.3.5.2,0,.3,0,.4,0Z"/>
    <path d="M33.5,90c0,0,0-.1,0-.1,0-.3.1-.6.1-.8,0-.1,0-.2.1-.2,0,0,0,0,0,.2,0,.3,0,.6.3.8.2.2.6.4.8.5.5.1,1.4-.1,1.6-1.1.2-.6-.2-1.1-.5-1.5-.4-.4-.7-.7-.9-1.1-.3-.4-.9-1.1-.6-2,.3-1.2,1.7-1.7,2.8-1.4.5.1,1.1.4,1.4.7.1.1.1.2.1.4,0,.2,0,.6,0,.8,0,.1,0,.2-.1.2,0,0,0,0,0-.2,0-.9-.6-1.4-1.3-1.6-.9-.2-1.6.4-1.8,1.1-.2.8.2,1.3.9,2,.7.8,1.3,1.6,1,2.5-.2.6-.5,1-1.1,1.3-.4.2-.9.3-1.6.1-.5-.1-1-.4-1.2-.5Z"/>
    <path d="M31.6,89.4c-.4-.1-.6-.3-.9-.4-.4-.1-.7-.2-.9-.3,0,0-.2,0-.1-.1,0,0,0,0,.2,0,.5,0,.5,0,.7-.5.2-.5.7-1.8.9-2.4.6-1.6.9-2.5,1-2.8.1-.4,0-.5-.2-.7-.1,0-.2-.1-.1-.2,0,0,0,0,.2,0,.2,0,.4.2.7.3.5.2.9.3,1.1.3,0,0,.2,0,.2.1,0,0,0,0-.3,0-.4,0-.6,0-.8.7-.2.6-1.3,3.6-1.5,4.1-.2.5-.3.9-.3,1.1,0,.4,0,.4.3.7,0,0,0,.1,0,.1,0,0-.1,0-.2,0Z"/>
    <path d="M30,81.1c-.5-.2-.7,0-.9.4-.6.9-2.7,5-2.8,5.1,0,.1,0,.1,0,.2,0,0,.3.2.7.4.4.2.7.3.9.4.2,0,.4,0,.8-.3.1,0,.2-.1.2-.1,0,0,0,.1,0,.2-.2.3-.4.5-.6.8,0,0,0,.1-.2.1,0,0,0,0,0,0,0,0-.1-.2-.3-.3-.2-.1-1.2-.6-2.2-1.2-.8-.4-1.7-.9-2-1.1-.2-.1-.4-.2-.6-.2,0,0,0,0,0,0,0,0,0,0,0-.1,0-.1.3-.4.4-.8,0-.1.2-.2.2-.2s0,.1,0,.2c0,.2,0,.4,0,.6,0,.1.2.2.9.6.3.2.8.4,1,.5,0,0,.1,0,.2-.1.2-.4,1.5-2.7,1.7-3.1.3-.6.9-1.8,1.1-2.2.1-.4,0-.5-.2-.8-.1,0-.2-.1-.1-.2,0,0,.1,0,.2,0,.2.1.5.4.9.6.5.3.8.4,1,.5.1,0,.2.1.1.2,0,0-.1,0-.3,0Z"/>
    <path d="M19.6,83c.1-.2.2-.5.3-.9.7-2.2,1.1-3.8,1.5-5.5.2-.7.2-.9,0-1.1,0-.1-.1-.2,0-.2,0,0,.1,0,.2,0,.2.1.3.3.8.6.3.3.7.5.9.7,0,0,.1.1.1.2s-.1,0-.2,0c-.4-.2-.6-.1-.7,0,0,.2-.4,1.2-.7,2.3,0,0,0,.2,0,.2.4.2,1.5,1.1,1.7,1.3,0,0,.2,0,.3,0,.2-.1,1-.6,1.5-1,.4-.3.5-.4.5-.6,0-.1-.1-.3-.3-.4,0-.1,0-.2,0-.2,0,0,.1,0,.2,0,.2.1.5.5.8.7.2.2.4.3.7.4,0,0,.1.1.1.2s-.1,0-.2,0c-.5-.2-.6-.2-1.6.3-.7.4-3,1.7-4.6,2.7-.1,0-.2.1-.2.2,0,0,0,0,0,0-.2,0-.5,0-.7.2,0,0,0,0-.1,0,0,0,0,0,0-.1ZM21.5,79.7c-.4,1.3-.6,2.1-.7,2.5,0,0,0,0,0,0,.6-.4,1.8-1.1,2.2-1.4,0,0,0,0,0-.1-.2-.1-.4-.3-.7-.6-.3-.2-.7-.5-.8-.6,0,0,0,0,0,0Z"/>
    <path d="M13.2,76.8c0,0,0-.1,0-.1.2-.2.5-.5.5-.6,0-.1.2-.1.2-.1s0,.1,0,.2c-.2.3-.2.5-.2.8,0,.3.2.7.4.9.4.4,1.2.7,1.9,0,.5-.4.5-1,.4-1.5,0-.5-.1-1-.2-1.4,0-.5-.1-1.4.6-2,.9-.9,2.3-.5,3.1.4.3.4.7,1,.8,1.4,0,.1,0,.2,0,.4-.1.1-.3.5-.6.6,0,0-.2.1-.2.1,0,0,0-.1,0-.2.5-.7.3-1.5-.2-2.1-.6-.7-1.6-.6-2.1-.1-.6.5-.5,1.2-.4,2.2.2,1.1.2,2-.6,2.6-.5.4-1,.6-1.6.4-.4,0-.9-.3-1.3-.8-.4-.4-.6-.9-.7-1.1Z"/>
    <path d="M8.7,70.1c0-.1-.3-.7-.5-1.2-.5-1.1-1.1-2.2-1.2-2.6,0-.2,0-.3,0-.4.1,0,.6-.3.7-.4,0,0,.2,0,.2,0,0,0,0,.1-.2.2-.3.4-.4.7-.2,1.1.1.4.3.8.8,1.7,0,0,.2,0,.3,0,.3-.1,1.5-.7,2.7-1.2,0,0,0-.1,0-.1-.5-1.1-.7-1.6-.8-1.7,0-.1-.2-.3-.6-.3-.1,0-.2,0-.2,0,0,0,0,0,.1-.1.1,0,.4-.1.7-.2s.3-.2.5-.3c.1,0,.2,0,.2,0,0,0,0,.1-.2.2-.2.2-.2.3-.2.5,0,.2,0,.4.8,1.8,0,0,.1,0,.2,0,.2,0,1.8-.9,2.3-1.1.4-.2.4-.3.3-.8,0,0,0-.2,0-.2,0,0,.1,0,.2.2,0,.1.2.6.4,1.1.2.4.3.6.4.8,0,0,0,.2,0,.2,0,0,0,0-.2-.1-.3-.4-.4-.4-.8-.2-.4.1-1.7.7-2.8,1.3-1.1.5-1.7.8-2.4,1.1-.4.2-.4.3-.4.7,0,.1,0,.2,0,.2,0,0,0,0-.1-.1Z"/>
    <path d="M6.2,64.4c0-.3-.2-.7-.2-1,0-.3-.2-.6-.3-.9,0-.1,0-.2,0-.2,0,0,.1,0,.2.1.2.4.3.4,1.1.2.2,0,1.2-.3,2.2-.6,1.1-.3,2.2-.6,2.3-.7.4-.2.7-.3.8-.4.1-.2.2-.5,0-1.4-.1-.5-.2-.8-.3-.9-.1-.2-.5-.4-.9-.5-.2,0-.2,0-.2-.1,0,0,.2,0,.3,0,0,0,.8,0,.9,0,0,0,.2.1.2.2,0,.1.3.9.4,1.5.1.6.3,1.4.4,1.8,0,.3.3.8.3,1,0,.1,0,.2,0,.2,0,0-.1,0-.2-.2-.2-.4-.4-.5-.8-.4-.4,0-1.2.3-2.7.7-1.5.4-2.3.7-2.6.8-.6.2-.7.3-.6.8,0,.1,0,.2,0,.2,0,0,0,0-.1-.2Z"/>
    <path d="M7.5,50.4c1.8-.2,3.1,1,3.6,1.8.2.4.4,1,.5,1.5.2,2.1-1.4,3.9-3.5,4.1-1.1.1-2.2-.2-3.1-1.2-.5-.5-.8-1.4-.9-2.2-.2-2,1.4-3.9,3.6-4ZM5.2,56.3c.7.5,1.8.7,2.7.6.9,0,1.8-.5,2.5-1.1.8-.8,1-1.6,1-2.2,0-.4-.2-.8-.6-1.2-.5-.5-1.5-1.1-3.1-1-1,0-1.9.5-2.7,1.2-.5.4-.8,1.1-.8,2,0,.6.6,1.3,1,1.6Z"/>
    <path d="M4.8,44.6c.4-.4.9-.6,1.5-.5.7.1,1,.5,1.2.8.1.2.2.5.3.7,0,0,0,0,.2,0,.5-.2,1.6-.7,2.2-1,.6-.3.9-.5,1.1-.7.4-.3.5-.6.6-.8,0,0,0-.1,0-.1s0,0,0,.1c0,.1,0,.3,0,.5,0,.7-.5,1.2-1.1,1.6-.7.4-2.2,1.1-2.6,1.2-.2.1-.3.2-.4.4,0,.1,0,.2,0,.5,0,0,0,.1,0,.1.1,0,1.4.2,1.9.3.6,0,1,0,1.1,0,.1,0,.3,0,.4-.5,0-.1,0-.2.1-.2,0,0,0,.1,0,.2,0,.2-.1.5-.2,1,0,.4,0,.8,0,1,0,.1,0,.2,0,.2,0,0,0,0,0-.2,0-.4-.1-.5-.6-.6-.6-.1-1.6-.3-3-.4-1.6-.2-2.3-.2-2.7-.3-.3,0-.5,0-.6.4,0,.1,0,.2-.1.2,0,0,0,0,0-.2,0-.2,0-.5.2-.9,0-.5,0-.8.1-1.4.1-.7.3-1.1.6-1.5ZM4.4,46.9s0,0,.2.1c.2,0,2.6.4,2.8.4.2,0,.2,0,.2,0,0,0,0-.2,0-.3,0-.3,0-1,0-1.2-.2-.4-.6-.7-1.2-.8-.6,0-1,0-1.4.3-.4.3-.6.7-.6,1.2,0,.1,0,.3,0,.4Z"/>
    <path d="M5.3,40.4c0-.3.2-.6.3-.9.2-.6.7-2.1.8-2.5.1-.4.2-.6.2-.7,0,0,0,0,.2,0,.1,0,.5.1.8.2,0,0,.2,0,.2.1,0,0,0,0-.2,0-.5,0-.8.2-.9.4-.1.2-.6,1.7-.7,2,0,0,0,.1.4.3.4.1,1.8.6,2.5.8.1,0,.2,0,.2,0l.4-1.4c.2-.5.2-.6.2-.8,0,0-.1-.2-.3-.4,0,0,0-.1,0-.1,0,0,0,0,.1,0,0,0,.4.2.6.2.2,0,.5.2.6.2.2,0,.2.1.2.1,0,0,0,0-.3,0-.1,0-.3,0-.4.2-.1.2-.2.5-.7,2,0,0,0,0,.2.1.6.2,2.1.6,2.3.7.1,0,.4,0,.6-.1.1-.1.2-.3.5-1,.3-.9.3-1.1.2-1.4,0-.1-.3-.4-.4-.6-.1-.2-.1-.2-.1-.3,0,0,0,0,.2,0,.2.1.7.4.8.5,0,0,0,.1,0,.2-.4,1.2-.8,2.4-1.1,3.3-.1.4-.3,1-.3,1.1,0,.1,0,.2-.1.2,0,0,0-.1,0-.2,0-.4,0-.6-.5-.8-1.7-.6-2.9-1-5.1-1.7-.6-.2-.8-.1-1,.2,0,.1-.1.1-.2.1,0,0,0-.1,0-.2Z"/>
    <path d="M7.4,34c.2-.3.5-.8.7-1.2,0,0,0,0,.3-.1,1.2-.2,5.6-1.1,7.1-1.4,0,0,0,0,0,0-.4-.2-3.1-1.7-4-2.2-.6-.3-.8-.2-1.1.1,0,.1-.2.2-.2.1,0,0,0-.1,0-.2,0-.2.3-.4.4-.7.2-.3.3-.6.3-.7,0-.1.1-.1.2-.1,0,0,0,.1,0,.2,0,.5.1.6.3.8.4.3,2.4,1.5,3.4,2,.9.5,1.5.9,2,1.1.2.1.3.2.3.3,0,0-.2.1-.5.1-1,.2-5.4,1.1-7.8,1.5,0,0,0,0,0,0,.3.2,3.6,2.1,4.1,2.4.4.2.7.4.9.4.2,0,.5-.2.6-.3,0,0,.2-.1.2-.1,0,0,0,.1,0,.2,0,.2-.3.4-.5.7-.2.3-.3.6-.3.7,0,.1-.1.1-.2.1,0,0,0-.1,0-.2,0-.4,0-.6-.5-1-.4-.3-3.5-2.1-4.3-2.6-.6-.3-.7-.3-.8-.2-.2,0-.3.2-.5.4,0,.1-.2.2-.2.1,0,0,0,0,0-.2Z"/>
    <path d="M18.8,29.4c.3-.5.2-.6-.2-1-.8-.8-4.2-3.9-4.3-3.9,0,0-.1,0-.2,0,0,0-.2.2-.6.6-.3.4-.5.6-.6.8-.1.2-.1.4.1.8,0,.1,0,.2,0,.2s0,0-.2,0c-.2-.3-.4-.6-.6-.8,0,0-.1-.1,0-.2,0,0,0,0,0,0s.2,0,.3-.2c.1-.1.9-1,1.7-1.8.6-.7,1.3-1.5,1.5-1.7.2-.2.3-.4.3-.6,0,0,0,0,0,0,0,0,0,0,.1,0,0,.1.3.4.6.6.1.1.2.2.1.2,0,0-.1,0-.2,0-.2-.1-.4-.2-.6-.2-.1,0-.3.1-.8.7-.2.3-.6.7-.7.8,0,0,0,.1,0,.2.3.3,2.3,2.1,2.6,2.4.5.4,1.6,1.4,1.8,1.6.3.2.5.2.8,0,.1,0,.2-.1.2,0,0,0,0,.1,0,.2-.2.2-.5.4-.8.8-.4.4-.6.7-.7.9,0,.1-.2.1-.2,0,0,0,0-.1,0-.2Z"/>
    <path d="M17.8,20.4c.3-.2.5-.4.8-.6.3-.2.5-.5.7-.7,0,0,.2,0,.2,0,0,0,0,.1,0,.2-.3.4-.2.5,0,.9.3.5,1.2,1.5,1.7,2,1.1,1.3,1.7,2,1.9,2.3.3.3.4.3.7.2.2,0,.2,0,.2,0,0,0,0,.1-.1.2-.1.1-.4.3-.6.5-.4.4-.7.6-.8.8,0,0-.2.1-.2,0,0,0,0,0,.1-.2.3-.3.2-.5-.2-1.1-.4-.5-2.4-2.9-2.8-3.4-.4-.4-.6-.7-.7-.8-.3-.3-.4-.2-.8,0,0,0-.1,0-.2,0,0,0,0,0,0-.1Z"/>
    <path d="M20.9,17.7c.3-.2.8-.4,1.2-.6,0,0,.1,0,.3,0,1.1.4,5.4,1.8,6.9,2.3,0,0,0,0,0,0-.2-.4-1.8-3.1-2.4-3.9-.3-.6-.6-.6-1-.4-.1,0-.2,0-.2,0,0,0,0-.1.2-.2.2-.1.5-.2.7-.4.3-.2.5-.4.6-.4.1,0,.2,0,.2,0,0,0,0,.1-.1.2-.3.4-.2.6,0,.9.2.4,1.4,2.5,1.9,3.4.5.9.8,1.5,1.2,2,.1.2.2.3,0,.4,0,0-.2,0-.5-.1-1-.4-5.2-1.8-7.5-2.6,0,0,0,0,0,0,.2.3,2.1,3.6,2.3,4.1.3.4.4.6.6.8.2.1.5,0,.7,0,.1,0,.2,0,.2,0,0,0,0,.1-.2.2-.2.1-.5.2-.8.4-.3.2-.6.4-.7.4-.2,0-.2,0-.2,0,0,0,0-.1.1-.2.3-.3.4-.5,0-1.1-.2-.4-1.9-3.6-2.4-4.4-.3-.6-.5-.6-.6-.6-.2,0-.3,0-.6,0-.2,0-.2,0-.2,0,0,0,0,0,.2-.2Z"/>
    <path d="M32.4,12.1c.1.2.3.5.6.8,1.4,1.8,2.5,3.1,3.7,4.4.5.6.6.6.9.6.1,0,.2,0,.2,0,0,0,0,.1-.2.1-.2,0-.4,0-1,.3-.4.1-.8.3-1.1.4-.1,0-.2,0-.2,0,0,0,0-.1.2-.2.4-.2.4-.4.3-.6,0-.2-.8-1-1.4-1.9,0,0-.1-.1-.2,0-.4.1-1.8.6-2,.7,0,0,0,.2,0,.3,0,.3,0,1.2,0,1.8,0,.4,0,.7.2.7.1,0,.3,0,.5,0,.1,0,.2,0,.2,0,0,0,0,.1-.2.1-.2,0-.7.2-1.1.3-.3,0-.5.2-.7.3-.1,0-.2,0-.2,0,0,0,0-.1.2-.2.5-.3.5-.4.7-1.4,0-.8.3-3.5.4-5.3,0-.2,0-.2,0-.3,0,0,0-.1,0-.1,0-.1.2-.4.2-.7,0,0,0-.1,0-.1,0,0,0,0,0,0ZM34,15.6c-.8-1.1-1.3-1.7-1.6-2,0,0,0,0,0,0,0,.7-.1,2.1-.1,2.6,0,0,0,.1,0,0,.2,0,.5-.1.9-.3s.8-.3.9-.4c0,0,0,0,0-.1Z"/>
  </g>
</svg>